<svg width="50" height="44" viewBox="0 0 50 44" fill="none" xmlns="http://www.w3.org/2000/svg">
<path d="M49.2952 13.7303C49.2952 14.47 49.2952 15.2097 49.2952 15.9494C49.2711 16.0581 49.2337 16.1645 49.2241 16.2745C48.972 19.2091 47.9094 21.8476 46.321 24.2963C44.6469 26.8768 42.6038 29.1515 40.3267 31.1881C35.8014 35.2347 31.2086 39.2063 26.6266 43.1888C25.3337 44.3129 23.8912 44.2573 22.5391 43.0933C19.0342 40.0741 15.5281 37.0573 12.0425 34.0163C9.08633 31.4371 6.21582 28.7671 3.86272 25.5993C2.07046 23.1868 0.693092 20.5652 0.233569 17.5569C-0.491296 12.8117 0.428957 8.43878 3.58532 4.73788C6.74288 1.03819 10.8436 -0.430326 15.6427 0.183671C18.7484 0.581318 21.2643 2.15861 23.3665 4.4333C23.808 4.91193 24.2108 5.42682 24.6583 5.95862C24.879 5.67338 25.0683 5.41715 25.271 5.17179C25.4856 4.91193 25.7027 4.65328 25.9355 4.40792C29.7564 0.379473 34.3649 -0.970594 39.6513 0.700975C44.6059 2.26739 47.4981 5.88973 48.7947 10.8452C49.042 11.7868 49.1324 12.7682 49.2952 13.7303Z" fill="#E34C4C"/>
<path d="M16.4502 8.96277C16.6249 9.4684 16.7997 9.97476 16.9839 10.5081C16.8801 10.5476 16.8004 10.5819 16.7185 10.609C16.0012 10.8457 15.2825 11.0773 14.5667 11.3192C13.3735 11.7211 12.714 12.8207 12.8646 14.0724C13.0722 15.799 13.2645 17.5285 13.4371 19.2587C13.5914 20.8056 14.1478 22.1654 15.2094 23.3103C15.2891 23.3966 15.3527 23.4974 15.4054 23.5675C18.4952 21.6101 21.5185 21.6159 24.574 23.5405C25.2606 22.8873 25.7775 22.0967 26.1372 21.1972C26.4458 20.4264 26.5394 19.6138 26.6278 18.7984C26.7997 17.2143 26.9656 15.6287 27.1557 14.0468C27.2998 12.8507 26.6673 11.7613 25.526 11.3506C24.7897 11.0854 24.0417 10.853 23.2996 10.6061C23.2229 10.5805 23.1475 10.5535 23.0335 10.5133C23.2133 9.98864 23.3896 9.4757 23.565 8.96277C23.5833 8.96277 23.6016 8.96277 23.6199 8.96277C24.3854 9.22216 25.1516 9.48082 25.9164 9.74167C27.3407 10.2276 28.2656 11.1913 28.6824 12.6373C28.863 13.2635 28.8279 13.8978 28.7548 14.5349C28.5544 16.2812 28.3519 18.0268 28.1676 19.7753C27.8072 23.2029 25.1107 26.1673 21.7189 26.8446C21.4345 26.9016 21.1471 26.9447 20.8444 26.9966C20.8393 27.0777 20.8298 27.1574 20.8298 27.2363C20.8291 28.7765 20.8247 30.3168 20.8305 31.8571C20.8364 33.6589 22.1539 35.11 23.9555 35.311C25.6357 35.4988 27.2449 34.3319 27.6346 32.6294C27.6968 32.3568 27.7194 32.0704 27.7216 31.7898C27.7304 30.4688 27.7173 29.147 27.7282 27.8259C27.7472 25.5469 29.6716 23.7122 31.947 23.7897L31.9367 23.7794C31.7883 24.3289 31.7912 24.8791 31.9367 25.4286L31.947 25.4183C30.5249 25.4008 29.6687 26.3675 29.4596 27.2458C29.4033 27.4825 29.3726 27.7309 29.3711 27.9742C29.3624 29.25 29.3689 30.5265 29.3667 31.8023C29.3616 34.3523 27.6536 36.4106 25.1502 36.8878C22.3652 37.4182 19.5634 35.3614 19.2373 32.5417C19.2052 32.2619 19.1898 31.9784 19.1891 31.697C19.1847 30.1385 19.1869 28.5807 19.1869 27.0149C18.7431 26.9213 18.3066 26.8446 17.8774 26.7379C14.8351 25.9788 12.3616 23.284 11.9163 20.183C11.6867 18.588 11.5427 16.9805 11.3613 15.3788C11.3182 14.9989 11.2817 14.6175 11.2378 14.2375C10.9994 12.1712 12.1408 10.3905 14.1258 9.73436C14.8519 9.4947 15.5786 9.2565 16.3047 9.01684C16.3376 9.00588 16.3654 8.98104 16.3953 8.9635C16.4136 8.96277 16.4319 8.96277 16.4502 8.96277Z" fill="white"/>
<path d="M39.2169 25.0433C39.1613 25.2617 39.1145 25.4824 39.0487 25.6979C38.5749 27.2462 37.0856 28.3291 35.4894 28.2911C33.81 28.2509 32.385 27.1556 31.9645 25.5796C31.9507 25.5284 31.9514 25.4729 31.9448 25.4203L31.9346 25.4305C32.9874 25.4305 34.0396 25.4305 35.0924 25.4305C35.0924 24.8613 35.0924 24.3301 35.0924 23.7814C34.0271 23.7814 32.9809 23.7814 31.9346 23.7814L31.9448 23.7916C32.1283 22.8154 32.6738 22.076 33.4839 21.5353C35.7176 20.0447 38.7321 21.3665 39.1671 24.0159C39.1759 24.0678 39.2001 24.1175 39.2169 24.1679C39.2169 24.4602 39.2169 24.7517 39.2169 25.0433Z" fill="white"/>
</svg>
